# xmcd CD database file
#
# Track frame offsets:
#	150
#	12578
#	25749
#	39716
#	50075
#	64869
#	77351
#	92325
#	104687
#	116257
#	132062
#	146481
#	157680
#	167713
#	183829
#	198395
#
# Disc length: 2841 seconds
#
# Revision: 0
# Processed by: cddbd v1.5.2PL0 Copyright (c) Steve Scherf et al.
# Submitted via: CDex 1.60beta1
#
DISCID=c70b1710
DTITLE=Various Artist - Jazz Club Male Singlers
DYEAR=2002
DGENRE=Jazz
TTITLE0=All Of Me
TTITLE1=It's Only A Papermoon
TTITLE2=If
TTITLE3=InThe Shade Of The Old Apple Tree 
TTITLE4=Body And Soul
TTITLE5=Temptation
TTITLE6=Night And Day
TTITLE7=Somebody Lovers Me
TTITLE8=Sweet Georgia Brown
TTITLE9=Prisoner Of Love
TTITLE10=I'm In The Mood For Love 
TTITLE11=Blue Skies
TTITLE12=With A Song In My Heart
TTITLE13=Begin The Beguine
TTITLE14=Blues In The Night
TTITLE15=Rock'n Chair
EXTD=YEAR: 2002
EXTT0=
EXTT1=
EXTT2=
EXTT3=
EXTT4=
EXTT5=
EXTT6=
EXTT7=
EXTT8=
EXTT9=
EXTT10=
EXTT11=
EXTT12=
EXTT13=
EXTT14=
EXTT15=
PLAYORDER=
